# xmcd
# Track frame offsets:
#	150
#	14858
#	29264
#	58442
#	74963
#	93242
#	105647
#	123195
#	134488
#	153224
#	167614
#
# Disc length: 2484 seconds
#
# Submitted via: cddb-tool 0.4.5
#
# Revision: 0
# Processed by: cddbd v1.5.1PL0 Copyright (c) Steve Scherf et al.
#
DISCID=9d09b20b
DTITLE=Yuppie Flu - Toast Masters
DYEAR=2005
DGENRE=Indie
TTITLE0=glueing all the fragments
TTITLE1=Our nature
TTITLE2=Stray on free
TTITLE3=a Good guide
TTITLE4=make a stand
TTITLE5=Together
TTITLE6=better than ever
TTITLE7=one shot
TTITLE8=pain is over
TTITLE9=vultures and fortune
TTITLE10=europe is different
EXTD=REC2031
EXTT0=
EXTT1=
EXTT2=
EXTT3=
EXTT4=
EXTT5=
EXTT6=
EXTT7=
EXTT8=
EXTT9=
EXTT10=
PLAYORDER=
